<svg width="14" height="14" viewBox="0 0 14 14" fill="none" xmlns="http://www.w3.org/2000/svg">
<path d="M0.459595 8.52731C0.865595 9.85681 1.6895 11.02 2.8091 11.8441C3.9286 12.6682 5.28409 13.1094 6.67419 13.102C8.06429 13.0946 9.415 12.6391 10.5258 11.8032C11.6365 10.9673 12.4481 9.79541 12.84 8.46165C13.2319 7.12787 13.1832 5.70327 12.7012 4.39935C12.2192 3.09543 11.3296 1.9817 10.1643 1.22351C8.99909 0.465326 7.6205 0.103106 6.2331 0.190616C4.8457 0.278136 3.5235 0.810726 2.4628 1.70933L4.6146 4.24924C5.1289 3.81353 5.77 3.5553 6.4427 3.51286C7.1154 3.47043 7.7838 3.64606 8.3488 4.01368C8.9138 4.3813 9.3452 4.92131 9.5789 5.55355C9.8126 6.18578 9.83619 6.87652 9.64619 7.52323C9.45609 8.16994 9.0626 8.73814 8.5241 9.14341C7.9855 9.54881 7.3306 9.76961 6.6566 9.77321C5.9825 9.77681 5.3253 9.56291 4.7825 9.16331C4.2396 8.76371 3.8401 8.19973 3.6433 7.55507L0.459595 8.52731Z" fill="#2F2105"/>
</svg>
